<?xml version="1.0" encoding="UTF-8" standalone="no"?>
<svg width="20px" height="24px" viewBox="0 0 20 24" version="1.1" xmlns="http://www.w3.org/2000/svg" xmlns:xlink="http://www.w3.org/1999/xlink" xmlns:sketch="http://www.bohemiancoding.com/sketch/ns">
    <title>Slice 1</title>
    <description>Created with Sketch (http://www.bohemiancoding.com/sketch)</description>
    <defs></defs>
    <g id="Logo" stroke="none" stroke-width="1" fill="none" fill-rule="evenodd">
        <path d="M16.6772767,2.16389791 L18.5945304,3.43811485 L17.3777691,5.14279002 C16.7849103,4.66113882 16.1412634,4.23567092 15.4549823,3.87642305 L16.6772767,2.16389791 Z M8.2,0 L8.2,2.6 C8.75941333,2.51649651 9.33231333,2.47294606 9.91569667,2.47294606 C10.4881433,2.47294606 11.0506167,2.51480682 11.6,2.59520345 L11.6,0 L8.2,0 L8.2,0 Z M20,13.9999709 C20,19.5228036 15.5230105,24 9.99997088,24 C4.47704776,24 0,19.5228036 0,13.9999709 C0,8.47719642 4.47704776,4 9.99997088,4 C15.5230105,3.99994176 20,8.47713817 20,13.9999709 L20,13.9999709 Z M17.4,13.9999708 C17.4,9.90958487 14.0896297,6.6 9.9999708,6.6 C5.90955258,6.6 2.6,9.91046099 2.6,13.9999708 C2.6,18.0903567 5.91042871,21.4 9.9999708,21.4 C14.0904474,21.4 17.4,18.0896558 17.4,13.9999708 L17.4,13.9999708 Z M11.8,14.2163191 C11.8,15.2013639 10.9940571,16 10,16 C9.00588571,16 8.2,15.2013639 8.2,14.2163191 C8.2,13.5764023 8.54028571,13.0154771 9.05114286,12.7006999 L9.70971429,7.79659655 C9.7232,7.68623483 9.81657143,7.60248676 9.92874286,7.6000519 C10.0408571,7.59767365 10.1377714,7.67728811 10.1561714,7.78697033 L10.9178857,12.6820137 C11.4458286,12.9928838 11.8,13.5634918 11.8,14.2163191 L11.8,14.2163191 Z M11.8,14.2163191" id="inactive" fill="#000000"></path>
    </g>
</svg>